<?xml version="1.0" encoding="UTF-8" standalone="no"?>
<!-- Created with Inkscape (http://www.inkscape.org/) -->

<svg
   version="1.1"
   id="svg2"
   xml:space="preserve"
   width="382.23199"
   height="378.48401"
   viewBox="0 0 382.23199 378.48401"
   sodipodi:docname="gnn_initial.pdf"
   xmlns:inkscape="http://www.inkscape.org/namespaces/inkscape"
   xmlns:sodipodi="http://sodipodi.sourceforge.net/DTD/sodipodi-0.dtd"
   xmlns="http://www.w3.org/2000/svg"
   xmlns:svg="http://www.w3.org/2000/svg"><defs
     id="defs6" /><sodipodi:namedview
     id="namedview4"
     pagecolor="#ffffff"
     bordercolor="#666666"
     borderopacity="1.0"
     inkscape:pageshadow="2"
     inkscape:pageopacity="0.0"
     inkscape:pagecheckerboard="0" /><g
     id="g8"
     inkscape:groupmode="layer"
     inkscape:label="gnn_initial"
     transform="matrix(1.3333333,0,0,-1.3333333,0,378.484)"><g
       id="g10"
       transform="translate(143.238,141.931)"><g
         id="g12"><g
           id="g14"><g
             id="g16"><g
               id="g18"><path
                 d="m 28.3468,113.38724 c 0,15.6557 -12.6911,28.3468 -28.3468,28.3468 -15.6557,0 -28.3468,-12.6911 -28.3468,-28.3468 0,-15.65572 12.6911,-28.34682 28.3468,-28.34682 15.6557,0 28.3468,12.6911 28.3468,28.34682 z"
                 style="fill:#ff0000;fill-opacity:1;fill-rule:nonzero;stroke:#000000;stroke-width:0.3985;stroke-linecap:butt;stroke-linejoin:miter;stroke-miterlimit:10;stroke-dasharray:none;stroke-opacity:1"
                 id="path20" /></g><g
               id="g22"
               transform="translate(-21.118,111.145)"><g
                 id="g24"><g
                   id="g26"
                   transform="translate(-122.12,-253.076)"><text
                     transform="matrix(1,0,0,-1,122.12,253.076)"
                     style="font-variant:normal;font-weight:normal;font-size:8.9664px;font-family:CMR9;-inkscape-font-specification:CMR9;writing-mode:lr-tb;fill:#000000;fill-opacity:1;fill-rule:nonzero;stroke:none"
                     id="text30"><tspan
                       x="0 6.9104047 10.494274 15.102107 19.70994 24.317774 26.87768 31.485514 34.045422 38.653255"
                       y="0"
                       sodipodi:role="line"
                       id="tspan28">A(255,0,0)</tspan></text><g
                     id="g32"
                     transform="translate(122.12,253.076)" /></g></g><g
                 id="g34"
                 transform="translate(21.118,-111.145)" /></g></g><g
             id="g36"><g
               id="g38"><path
                 d="m 141.73404,56.69362 c 0,15.6557 -12.6911,28.3468 -28.3468,28.3468 -15.65572,0 -28.34682,-12.6911 -28.34682,-28.3468 0,-15.65572 12.6911,-28.34682 28.34682,-28.34682 15.6557,0 28.3468,12.6911 28.3468,28.34682 z"
                 style="fill:#00ff00;fill-opacity:1;fill-rule:nonzero;stroke:#000000;stroke-width:0.3985;stroke-linecap:butt;stroke-linejoin:miter;stroke-miterlimit:10;stroke-dasharray:none;stroke-opacity:1"
                 id="path40" /></g><g
               id="g42"
               transform="translate(92.46,54.452)"><g
                 id="g44"><g
                   id="g46"
                   transform="translate(-235.698,-196.383)"><text
                     transform="matrix(1,0,0,-1,235.698,196.383)"
                     style="font-variant:normal;font-weight:normal;font-size:8.9664px;font-family:CMR9;-inkscape-font-specification:CMR9;writing-mode:lr-tb;fill:#000000;fill-opacity:1;fill-rule:nonzero;stroke:none"
                     id="text50"><tspan
                       x="0 6.5266423 10.110513 14.718346 17.278254 21.886086 26.493919 31.101751 33.661659 38.269493"
                       y="0"
                       sodipodi:role="line"
                       id="tspan48">B(0,255,0)</tspan></text><g
                     id="g52"
                     transform="translate(235.698,196.383)" /></g></g><g
                 id="g54"
                 transform="translate(-92.46,-54.452)" /></g></g><g
             id="g56"><g
               id="g58"><path
                 d="m 143.23906,-56.69362 c 0,16.48692 -13.36491,29.85182 -29.85182,29.85182 -16.48693,0 -29.85182,-13.3649 -29.85182,-29.85182 0,-16.48691 13.36489,-29.85181 29.85182,-29.85181 16.48691,0 29.85182,13.3649 29.85182,29.85181 z"
                 style="fill:#ffff00;fill-opacity:1;fill-rule:nonzero;stroke:#000000;stroke-width:0.3985;stroke-linecap:butt;stroke-linejoin:miter;stroke-miterlimit:10;stroke-dasharray:none;stroke-opacity:1"
                 id="path60" /></g><g
               id="g62"
               transform="translate(87.787,-58.934)"><g
                 id="g64"><g
                   id="g66"
                   transform="translate(-231.025,-82.997)"><text
                     transform="matrix(1,0,0,-1,231.025,82.997)"
                     style="font-variant:normal;font-weight:normal;font-size:8.9664px;font-family:CMR9;-inkscape-font-specification:CMR9;writing-mode:lr-tb;fill:#000000;fill-opacity:1;fill-rule:nonzero;stroke:none"
                     id="text70"><tspan
                       x="0 6.6557589 10.239629 14.847462 19.455296 24.063128 26.623035 31.230867 35.838699 40.446533 43.006439 47.614273"
                       y="0"
                       sodipodi:role="line"
                       id="tspan68">C(255,255,0)</tspan></text><g
                     id="g72"
                     transform="translate(231.025,82.997)" /></g></g><g
                 id="g74"
                 transform="translate(-87.787,58.934)" /></g></g><g
             id="g76"><g
               id="g78"><path
                 d="m 28.3468,-113.38724 c 0,15.65572 -12.6911,28.34682 -28.3468,28.34682 -15.6557,0 -28.3468,-12.6911 -28.3468,-28.34682 0,-15.6557 12.6911,-28.3468 28.3468,-28.3468 15.6557,0 28.3468,12.6911 28.3468,28.3468 z"
                 style="fill:#0000ff;fill-opacity:1;fill-rule:nonzero;stroke:#000000;stroke-width:0.3985;stroke-linecap:butt;stroke-linejoin:miter;stroke-miterlimit:10;stroke-dasharray:none;stroke-opacity:1"
                 id="path80" /></g><g
               id="g82"
               transform="translate(-21.182,-115.627)"><g
                 id="g84"><g
                   id="g86"
                   transform="translate(-122.056,-26.304)"><text
                     transform="matrix(1,0,0,-1,122.056,26.304)"
                     style="font-variant:normal;font-weight:normal;font-size:8.9664px;font-family:CMR9;-inkscape-font-specification:CMR9;writing-mode:lr-tb;fill:#000000;fill-opacity:1;fill-rule:nonzero;stroke:none"
                     id="text90"><tspan
                       x="0 7.0386238 10.622494 15.230327 17.790234 22.398067 24.957973 29.565807 34.173641 38.781475"
                       y="0"
                       sodipodi:role="line"
                       id="tspan88">D(0,0,255)</tspan></text><g
                     id="g92"
                     transform="translate(122.056,26.304)" /></g></g><g
                 id="g94"
                 transform="translate(21.182,115.627)" /></g></g><g
             id="g96"><g
               id="g98"><path
                 d="m -83.73389,0 c 0,16.37729 -13.27606,29.65334 -29.65335,29.65334 -16.37729,0 -29.65333,-13.27605 -29.65333,-29.65334 0,-16.37729 13.27604,-29.65334 29.65333,-29.65334 16.37729,0 29.65335,13.27605 29.65335,29.65334 z"
                 style="fill:#ff00ff;fill-opacity:1;fill-rule:nonzero;stroke:#000000;stroke-width:0.3985;stroke-linecap:butt;stroke-linejoin:miter;stroke-miterlimit:10;stroke-dasharray:none;stroke-opacity:1"
                 id="path100" /></g><g
               id="g102"
               transform="translate(-138.792,-2.241)"><g
                 id="g104"><g
                   id="g106"
                   transform="translate(-4.446,-139.69)"><text
                     transform="matrix(1,0,0,-1,4.446,139.69)"
                     style="font-variant:normal;font-weight:normal;font-size:8.9664px;font-family:CMR9;-inkscape-font-specification:CMR9;writing-mode:lr-tb;fill:#000000;fill-opacity:1;fill-rule:nonzero;stroke:none"
                     id="text110"><tspan
                       x="0 6.2711 9.85497 14.462803 19.070637 23.678469 26.238377 30.846209 33.406116 38.01395 42.621784 47.229614"
                       y="0"
                       sodipodi:role="line"
                       id="tspan108">E(255,0,255)</tspan></text><g
                     id="g112"
                     transform="translate(4.446,139.69)" /></g></g><g
                 id="g114"
                 transform="translate(138.792,2.241)" /></g></g><path
             d="M 25.53055,100.62218 87.85667,69.45866"
             style="fill:none;stroke:#000000;stroke-width:0.3985;stroke-linecap:butt;stroke-linejoin:miter;stroke-miterlimit:10;stroke-dasharray:none;stroke-opacity:1"
             id="path116" /><path
             d="M -20.18512,93.2021 -92.27823,21.109"
             style="fill:none;stroke:#000000;stroke-width:0.3985;stroke-linecap:butt;stroke-linejoin:miter;stroke-miterlimit:10;stroke-dasharray:none;stroke-opacity:1"
             id="path118" /><path
             d="M 113.38724,28.14755 V -26.64253"
             style="fill:none;stroke:#000000;stroke-width:0.3985;stroke-linecap:butt;stroke-linejoin:miter;stroke-miterlimit:10;stroke-dasharray:none;stroke-opacity:1"
             id="path120" /><path
             d="M 86.51067,-70.13165 25.53055,-100.62218"
             style="fill:none;stroke:#000000;stroke-width:0.3985;stroke-linecap:butt;stroke-linejoin:miter;stroke-miterlimit:10;stroke-dasharray:none;stroke-opacity:1"
             id="path122" /><path
             d="M -20.18512,-93.2021 -92.27823,-21.109"
             style="fill:none;stroke:#000000;stroke-width:0.3985;stroke-linecap:butt;stroke-linejoin:miter;stroke-miterlimit:10;stroke-dasharray:none;stroke-opacity:1"
             id="path124" /><path
             d="M 85.6936,49.77097 -84.42609,7.23947"
             style="fill:none;stroke:#000000;stroke-width:0.3985;stroke-linecap:butt;stroke-linejoin:miter;stroke-miterlimit:10;stroke-dasharray:none;stroke-opacity:1"
             id="path126" /></g></g></g></g></svg>
