<?xml version="1.0" encoding="UTF-8" standalone="no"?>
<!-- Created with Inkscape (http://www.inkscape.org/) -->

<svg
   version="1.1"
   id="svg2"
   xml:space="preserve"
   width="383.29443"
   height="388.91275"
   viewBox="0 0 383.29444 388.91275"
   sodipodi:docname="gnn_final.svg"
   inkscape:version="1.1.2 (0a00cf5339, 2022-02-04)"
   xmlns:inkscape="http://www.inkscape.org/namespaces/inkscape"
   xmlns:sodipodi="http://sodipodi.sourceforge.net/DTD/sodipodi-0.dtd"
   xmlns="http://www.w3.org/2000/svg"
   xmlns:svg="http://www.w3.org/2000/svg"><sodipodi:namedview
     id="namedview65"
     pagecolor="#ffffff"
     bordercolor="#666666"
     borderopacity="1.0"
     inkscape:pageshadow="2"
     inkscape:pageopacity="1"
     inkscape:pagecheckerboard="false"
     showgrid="false"
     inkscape:zoom="1.9953061"
     inkscape:cx="183.68109"
     inkscape:cy="162.3811"
     inkscape:window-width="1920"
     inkscape:window-height="983"
     inkscape:window-x="0"
     inkscape:window-y="0"
     inkscape:window-maximized="1"
     inkscape:current-layer="svg2" /><defs
     id="defs6" /><g
     id="g8"
     transform="matrix(1.3333333,0,0,-1.3333333,-0.00309334,388.9097)"><g
       id="g10"
       transform="translate(-196.127,143.634)"><g
         id="g12"><g
           id="g14"><g
             id="g16"><g
               id="g18"><g
                 id="g20"><path
                   d="m 374.62364,113.38724 c 0,19.03294 -15.42884,34.46179 -34.46179,34.46179 -19.03296,0 -34.46179,-15.42885 -34.46179,-34.46179 0,-19.03296 15.42883,-34.46179 34.46179,-34.46179 19.03295,0 34.46179,15.42883 34.46179,34.46179 z"
                   style="fill:#7f7f7f;fill-opacity:1;fill-rule:nonzero;stroke:#000000;stroke-width:0.3985;stroke-linecap:butt;stroke-linejoin:miter;stroke-miterlimit:10;stroke-dasharray:none;stroke-opacity:1"
                   id="path22" /></g><g
                 id="g24"
                 transform="translate(309.824,111.145)"><g
                   id="g26"><g
                     id="g28"
                     transform="translate(-113.697,-254.779)"><text
                       transform="matrix(1,0,0,-1,113.697,254.779)"
                       style="font-variant:normal;font-weight:normal;font-size:8.9664px;font-family:CMR9;-inkscape-font-specification:CMR9;writing-mode:lr-tb;fill:#000000;fill-opacity:1;fill-rule:nonzero;stroke:none"
                       id="text32"><tspan
                         x="0 6.9104047 10.494274 15.102107 19.70994 24.317774 26.87768 31.485514 36.093346 40.70118 43.261086 47.868919 52.476753 57.084587"
                         y="0"
                         id="tspan30">A(127,127,127)</tspan></text><g
                       id="g34"
                       transform="translate(113.697,254.779)" /></g></g><g
                   id="g36"
                   transform="translate(-309.824,-111.145)" /></g></g><g
               id="g38"><g
                 id="g40"><path
                   d="m 483.3345,56.69362 c 0,16.45024 -13.33517,29.78541 -29.78541,29.78541 -16.45024,0 -29.78542,-13.33517 -29.78542,-29.78541 0,-16.45026 13.33518,-29.78543 29.78542,-29.78543 16.45024,0 29.78541,13.33517 29.78541,29.78543 z"
                   style="fill:#ff5555;fill-opacity:1;fill-rule:nonzero;stroke:#000000;stroke-width:0.3985;stroke-linecap:butt;stroke-linejoin:miter;stroke-miterlimit:10;stroke-dasharray:none;stroke-opacity:1"
                   id="path42" /></g><g
                 id="g44"
                 transform="translate(428.009,54.452)"><g
                   id="g46"><g
                     id="g48"
                     transform="translate(-231.882,-198.086)"><text
                       transform="matrix(1,0,0,-1,231.882,198.086)"
                       style="font-variant:normal;font-weight:normal;font-size:8.9664px;font-family:CMR9;-inkscape-font-specification:CMR9;writing-mode:lr-tb;fill:#000000;fill-opacity:1;fill-rule:nonzero;stroke:none"
                       id="text52"><tspan
                         x="0 6.5266423 10.110513 14.718346 19.32618 23.934011 26.493919 31.101751 35.709583 38.269493 42.877323 47.485157"
                         y="0"
                         id="tspan50">B(255,85,85)</tspan></text><g
                       id="g54"
                       transform="translate(231.882,198.086)" /></g></g><g
                   id="g56"
                   transform="translate(-428.009,-54.452)" /></g></g><g
               id="g58"><g
                 id="g60"><path
                   d="m 483.40091,-56.69362 c 0,16.48692 -13.36491,29.85182 -29.85182,29.85182 -16.48691,0 -29.85182,-13.3649 -29.85182,-29.85182 0,-16.48691 13.36491,-29.85181 29.85182,-29.85181 16.48691,0 29.85182,13.3649 29.85182,29.85181 z"
                   style="fill:#ffff00;fill-opacity:1;fill-rule:nonzero;stroke:#000000;stroke-width:0.3985;stroke-linecap:butt;stroke-linejoin:miter;stroke-miterlimit:10;stroke-dasharray:none;stroke-opacity:1"
                   id="path62" /></g><g
                 id="g64"
                 transform="translate(427.945,-58.934)"><g
                   id="g66"><g
                     id="g68"
                     transform="translate(-231.818,-84.7)"><text
                       transform="matrix(1,0,0,-1,231.818,84.7)"
                       style="font-variant:normal;font-weight:normal;font-size:8.9664px;font-family:CMR9;-inkscape-font-specification:CMR9;writing-mode:lr-tb;fill:#000000;fill-opacity:1;fill-rule:nonzero;stroke:none"
                       id="text72"><tspan
                         x="0 6.6557589 10.239629 14.847462 19.455296 24.063128 26.623035 31.230867 35.838699 40.446533 43.006439 47.614273"
                         y="0"
                         id="tspan70">C(255,255,0)</tspan></text><g
                       id="g74"
                       transform="translate(231.818,84.7)" /></g></g><g
                   id="g76"
                   transform="translate(-427.945,58.934)" /></g></g><g
               id="g78"><g
                 id="g80"><path
                   d="m 370.21165,-113.38724 c 0,16.59627 -13.45355,30.04982 -30.0498,30.04982 -16.59627,0 -30.04982,-13.45355 -30.04982,-30.04982 0,-16.59625 13.45355,-30.0498 30.04982,-30.0498 16.59625,0 30.0498,13.45355 30.0498,30.0498 z"
                   style="fill:#007f7f;fill-opacity:1;fill-rule:nonzero;stroke:#000000;stroke-width:0.3985;stroke-linecap:butt;stroke-linejoin:miter;stroke-miterlimit:10;stroke-dasharray:none;stroke-opacity:1"
                   id="path82" /></g><g
                 id="g84"
                 transform="translate(314.368,-115.627)"><g
                   id="g86"><g
                     id="g88"
                     transform="translate(-118.241,-28.007)"><text
                       transform="matrix(1,0,0,-1,118.241,28.007)"
                       style="font-variant:normal;font-weight:normal;font-size:8.9664px;font-family:CMR9;-inkscape-font-specification:CMR9;writing-mode:lr-tb;fill:#000000;fill-opacity:1;fill-rule:nonzero;stroke:none"
                       id="text92"><tspan
                         x="0 7.0386238 10.622494 15.230327 17.790234 22.398067 27.005899 31.613733 34.173641 38.781475 43.389305 47.997139"
                         y="0"
                         id="tspan90">D(0,127,127)</tspan></text><g
                       id="g94"
                       transform="translate(118.241,28.007)" /></g></g><g
                   id="g96"
                   transform="translate(-314.368,115.627)" /></g></g><g
               id="g98"><g
                 id="g100"><path
                   d="m 257.22064,0 c 0,16.81508 -13.63095,30.44603 -30.44603,30.44603 -16.81509,0 -30.44604,-13.63095 -30.44604,-30.44603 0,-16.81508 13.63095,-30.44603 30.44604,-30.44603 16.81508,0 30.44603,13.63095 30.44603,30.44603 z"
                   style="fill:#555555;fill-opacity:1;fill-rule:nonzero;stroke:#000000;stroke-width:0.3985;stroke-linecap:butt;stroke-linejoin:miter;stroke-miterlimit:10;stroke-dasharray:none;stroke-opacity:1"
                   id="path102" /></g><g
                 id="g104"
                 transform="translate(200.598,-2.241)"><g
                   id="g106"><g
                     id="g108"
                     transform="translate(-4.471,-141.393)"><text
                       transform="matrix(1,0,0,-1,4.471,141.393)"
                       style="font-variant:normal;font-weight:normal;font-size:8.9664px;font-family:CMR9;-inkscape-font-specification:CMR9;writing-mode:lr-tb;fill:#000000;fill-opacity:1;fill-rule:nonzero;stroke:none"
                       id="text112"><tspan
                         x="0 6.2711 9.85497 14.462803 19.070637 24.706018 29.304886 33.91272 39.5481 44.155933 48.763767"
                         y="0"
                         id="tspan110">E(85,85,85)</tspan></text><g
                       id="g114"
                       transform="translate(4.471,141.393)" /></g></g><g
                   id="g116"
                   transform="translate(-200.598,2.241)" /></g></g><path
               d="M 371.1614,97.88773 426.7319,70.10197"
               style="fill:none;stroke:#000000;stroke-width:0.3985;stroke-linecap:butt;stroke-linejoin:miter;stroke-miterlimit:10;stroke-dasharray:none;stroke-opacity:1"
               id="path118" /><path
               d="M 315.65277,88.87816 248.44412,21.6695"
               style="fill:none;stroke:#000000;stroke-width:0.3985;stroke-linecap:butt;stroke-linejoin:miter;stroke-miterlimit:10;stroke-dasharray:none;stroke-opacity:1"
               id="path120" /><path
               d="M 453.54909,26.70894 V -26.64253"
               style="fill:none;stroke:#000000;stroke-width:0.3985;stroke-linecap:butt;stroke-linejoin:miter;stroke-miterlimit:10;stroke-dasharray:none;stroke-opacity:1"
               id="path122" /><path
               d="M 426.67252,-70.13165 367.2155,-99.86064"
               style="fill:none;stroke:#000000;stroke-width:0.3985;stroke-linecap:butt;stroke-linejoin:miter;stroke-miterlimit:10;stroke-dasharray:none;stroke-opacity:1"
               id="path124" /><path
               d="m 318.7725,-91.9979 -70.32838,70.3284"
               style="fill:none;stroke:#000000;stroke-width:0.3985;stroke-linecap:butt;stroke-linejoin:miter;stroke-miterlimit:10;stroke-dasharray:none;stroke-opacity:1"
               id="path126" /><path
               d="M 424.45981,49.42209 256.50478,7.4317"
               style="fill:none;stroke:#000000;stroke-width:0.3985;stroke-linecap:butt;stroke-linejoin:miter;stroke-miterlimit:10;stroke-dasharray:none;stroke-opacity:1"
               id="path128" /></g></g></g></g></g></svg>
