<?xml version="1.0" encoding="UTF-8" standalone="no"?>
<!-- Created with Inkscape (http://www.inkscape.org/) -->

<svg
   version="1.1"
   id="svg2"
   xml:space="preserve"
   width="403.73883"
   height="391.0386"
   viewBox="0 0 403.73883 391.03861"
   sodipodi:docname="gnn_message.svg"
   inkscape:version="1.1.2 (0a00cf5339, 2022-02-04)"
   xmlns:inkscape="http://www.inkscape.org/namespaces/inkscape"
   xmlns:sodipodi="http://sodipodi.sourceforge.net/DTD/sodipodi-0.dtd"
   xmlns="http://www.w3.org/2000/svg"
   xmlns:svg="http://www.w3.org/2000/svg"><sodipodi:namedview
     id="namedview104"
     pagecolor="#ffffff"
     bordercolor="#666666"
     borderopacity="1.0"
     inkscape:pageshadow="2"
     inkscape:pageopacity="0.0"
     inkscape:pagecheckerboard="0"
     showgrid="false"
     inkscape:snap-page="false"
     inkscape:zoom="1.9844588"
     inkscape:cx="201.81825"
     inkscape:cy="231.29732"
     inkscape:window-width="1586"
     inkscape:window-height="991"
     inkscape:window-x="26"
     inkscape:window-y="23"
     inkscape:window-maximized="0"
     inkscape:current-layer="svg2" /><defs
     id="defs6" /><g
     id="g8"
     transform="matrix(1.3333333,0,0,-1.3333333,0.00230666,391.03652)"><g
       id="g10"
       transform="translate(151.498,146.671)"><g
         id="g12"><g
           id="g14"><g
             id="g16"><g
               id="g18"><path
                 d="m 33.01991,113.38724 c 0,18.23662 -14.78329,33.01991 -33.01991,33.01991 -18.23662,0 -33.01991,-14.78329 -33.01991,-33.01991 0,-18.23664 14.78329,-33.01992 33.01991,-33.01992 18.23662,0 33.01991,14.78328 33.01991,33.01992 z"
                 style="fill:#ff0000;fill-opacity:1;fill-rule:nonzero;stroke:#000000;stroke-width:0.3985;stroke-linecap:butt;stroke-linejoin:miter;stroke-miterlimit:10;stroke-dasharray:none;stroke-opacity:1"
                 id="path20" /></g><g
               id="g22"
               transform="translate(-28.796,111.144)"><g
                 id="g24"><g
                   id="g26"
                   transform="translate(-122.702,-257.815)"><text
                     transform="matrix(1,0,0,-1,122.702,257.815)"
                     style="font-variant:normal;font-weight:normal;font-size:8.9664px;font-family:CMR9;-inkscape-font-specification:CMR9;writing-mode:lr-tb;fill:#000000;fill-opacity:1;fill-rule:nonzero;stroke:none"
                     id="text30"><tspan
                       x="0 6.9104047 12.53682 20.216541"
                       y="0"
                       id="tspan28">A,m(</tspan></text><text
                     transform="matrix(1,0,0,-1,146.507,257.815)"
                     style="font-variant:normal;font-weight:normal;font-size:8.9664px;font-family:CMSY9;-inkscape-font-specification:CMSY9;writing-mode:lr-tb;fill:#000000;fill-opacity:1;fill-rule:nonzero;stroke:none"
                     id="text34"><tspan
                       x="0"
                       y="0"
                       id="tspan32">{</tspan></text><text
                     transform="matrix(1,0,0,-1,151.114,257.815)"
                     style="font-variant:normal;font-weight:normal;font-size:8.9664px;font-family:CMR9;-inkscape-font-specification:CMR9;writing-mode:lr-tb;fill:#000000;fill-opacity:1;fill-rule:nonzero;stroke:none"
                     id="text38"><tspan
                       x="0 6.2711 11.906483"
                       y="0"
                       id="tspan36">E,B</tspan></text><text
                     transform="matrix(1,0,0,-1,169.544,257.815)"
                     style="font-variant:normal;font-weight:normal;font-size:8.9664px;font-family:CMSY9;-inkscape-font-specification:CMSY9;writing-mode:lr-tb;fill:#000000;fill-opacity:1;fill-rule:nonzero;stroke:none"
                     id="text42"><tspan
                       x="0"
                       y="0"
                       id="tspan40">}</tspan></text><text
                     transform="matrix(1,0,0,-1,174.151,257.815)"
                     style="font-variant:normal;font-weight:normal;font-size:8.9664px;font-family:CMR9;-inkscape-font-specification:CMR9;writing-mode:lr-tb;fill:#000000;fill-opacity:1;fill-rule:nonzero;stroke:none"
                     id="text46"><tspan
                       x="0"
                       y="0"
                       id="tspan44">)</tspan></text><g
                     id="g48"
                     transform="translate(122.702,257.815)" /></g></g><g
                 id="g50"
                 transform="translate(28.796,-111.144)" /></g></g><g
             id="g52"><g
               id="g54"><path
                 d="m 151.10516,56.69362 c 0,20.8313 -16.88662,37.71792 -37.71792,37.71792 -20.83132,0 -37.71794,-16.88662 -37.71794,-37.71792 0,-20.83132 16.88662,-37.71794 37.71794,-37.71794 20.8313,0 37.71792,16.88662 37.71792,37.71794 z"
                 style="fill:#00ff00;fill-opacity:1;fill-rule:nonzero;stroke:#000000;stroke-width:0.3985;stroke-linecap:butt;stroke-linejoin:miter;stroke-miterlimit:10;stroke-dasharray:none;stroke-opacity:1"
                 id="path56" /></g><g
               id="g58"
               transform="translate(79.725,54.451)"><g
                 id="g60"><g
                   id="g62"
                   transform="translate(-231.223,-201.122)"><text
                     transform="matrix(1,0,0,-1,231.223,201.122)"
                     style="font-variant:normal;font-weight:normal;font-size:8.9664px;font-family:CMR9;-inkscape-font-specification:CMR9;writing-mode:lr-tb;fill:#000000;fill-opacity:1;fill-rule:nonzero;stroke:none"
                     id="text66"><tspan
                       x="0 6.5266423 12.162024 19.841747"
                       y="0"
                       id="tspan64">B,m(</tspan></text><text
                     transform="matrix(1,0,0,-1,254.645,201.122)"
                     style="font-variant:normal;font-weight:normal;font-size:8.9664px;font-family:CMSY9;-inkscape-font-specification:CMSY9;writing-mode:lr-tb;fill:#000000;fill-opacity:1;fill-rule:nonzero;stroke:none"
                     id="text70"><tspan
                       x="0"
                       y="0"
                       id="tspan68">{</tspan></text><text
                     transform="matrix(1,0,0,-1,259.253,201.122)"
                     style="font-variant:normal;font-weight:normal;font-size:8.9664px;font-family:CMR9;-inkscape-font-specification:CMR9;writing-mode:lr-tb;fill:#000000;fill-opacity:1;fill-rule:nonzero;stroke:none"
                     id="text74"><tspan
                       x="0 6.9104047 12.545787 18.80792 24.443302"
                       y="0"
                       id="tspan72">A,E,C</tspan></text><text
                     transform="matrix(1,0,0,-1,290.352,201.122)"
                     style="font-variant:normal;font-weight:normal;font-size:8.9664px;font-family:CMSY9;-inkscape-font-specification:CMSY9;writing-mode:lr-tb;fill:#000000;fill-opacity:1;fill-rule:nonzero;stroke:none"
                     id="text78"><tspan
                       x="0"
                       y="0"
                       id="tspan76">}</tspan></text><text
                     transform="matrix(1,0,0,-1,294.96,201.122)"
                     style="font-variant:normal;font-weight:normal;font-size:8.9664px;font-family:CMR9;-inkscape-font-specification:CMR9;writing-mode:lr-tb;fill:#000000;fill-opacity:1;fill-rule:nonzero;stroke:none"
                     id="text82"><tspan
                       x="0"
                       y="0"
                       id="tspan80">)</tspan></text><g
                     id="g84"
                     transform="translate(231.223,201.122)" /></g></g><g
                 id="g86"
                 transform="translate(-79.725,-54.451)" /></g></g><g
             id="g88"><g
               id="g90"><path
                 d="m 146.67105,-56.69362 c 0,18.38237 -14.90145,33.28383 -33.28381,33.28383 -18.38237,0 -33.28383,-14.90146 -33.28383,-33.28383 0,-18.38237 14.90146,-33.28381 33.28383,-33.28381 18.38236,0 33.28381,14.90144 33.28381,33.28381 z"
                 style="fill:#ffff00;fill-opacity:1;fill-rule:nonzero;stroke:#000000;stroke-width:0.3985;stroke-linecap:butt;stroke-linejoin:miter;stroke-miterlimit:10;stroke-dasharray:none;stroke-opacity:1"
                 id="path92" /></g><g
               id="g94"
               transform="translate(84.333,-58.935)"><g
                 id="g96"><g
                   id="g98"
                   transform="translate(-235.831,-87.736)"><text
                     transform="matrix(1,0,0,-1,235.831,87.736)"
                     style="font-variant:normal;font-weight:normal;font-size:8.9664px;font-family:CMR9;-inkscape-font-specification:CMR9;writing-mode:lr-tb;fill:#000000;fill-opacity:1;fill-rule:nonzero;stroke:none"
                     id="text102"><tspan
                       x="0 6.6557589 12.291142 19.961897"
                       y="0"
                       id="tspan100">C,m(</tspan></text><text
                     transform="matrix(1,0,0,-1,259.381,87.736)"
                     style="font-variant:normal;font-weight:normal;font-size:8.9664px;font-family:CMSY9;-inkscape-font-specification:CMSY9;writing-mode:lr-tb;fill:#000000;fill-opacity:1;fill-rule:nonzero;stroke:none"
                     id="text106"><tspan
                       x="0"
                       y="0"
                       id="tspan104">{</tspan></text><text
                     transform="matrix(1,0,0,-1,263.989,87.736)"
                     style="font-variant:normal;font-weight:normal;font-size:8.9664px;font-family:CMR9;-inkscape-font-specification:CMR9;writing-mode:lr-tb;fill:#000000;fill-opacity:1;fill-rule:nonzero;stroke:none"
                     id="text110"><tspan
                       x="0 7.0386238 12.674006"
                       y="0"
                       id="tspan108">D,B</tspan></text><text
                     transform="matrix(1,0,0,-1,283.186,87.736)"
                     style="font-variant:normal;font-weight:normal;font-size:8.9664px;font-family:CMSY9;-inkscape-font-specification:CMSY9;writing-mode:lr-tb;fill:#000000;fill-opacity:1;fill-rule:nonzero;stroke:none"
                     id="text114"><tspan
                       x="0"
                       y="0"
                       id="tspan112">}</tspan></text><text
                     transform="matrix(1,0,0,-1,287.794,87.736)"
                     style="font-variant:normal;font-weight:normal;font-size:8.9664px;font-family:CMR9;-inkscape-font-specification:CMR9;writing-mode:lr-tb;fill:#000000;fill-opacity:1;fill-rule:nonzero;stroke:none"
                     id="text118"><tspan
                       x="0"
                       y="0"
                       id="tspan116">)</tspan></text><g
                     id="g120"
                     transform="translate(235.831,87.736)" /></g></g><g
                 id="g122"
                 transform="translate(-84.333,58.935)" /></g></g><g
             id="g124"><g
               id="g126"><path
                 d="m 33.08606,-113.38724 c 0,18.27317 -14.81291,33.08608 -33.08606,33.08608 -18.27315,0 -33.08606,-14.81291 -33.08606,-33.08608 0,-18.27315 14.81291,-33.08606 33.08606,-33.08606 18.27315,0 33.08606,14.81291 33.08606,33.08606 z"
                 style="fill:#0000ff;fill-opacity:1;fill-rule:nonzero;stroke:#000000;stroke-width:0.3985;stroke-linecap:butt;stroke-linejoin:miter;stroke-miterlimit:10;stroke-dasharray:none;stroke-opacity:1"
                 id="path128" /></g><g
               id="g130"
               transform="translate(-28.861,-115.628)"><g
                 id="g132"><g
                   id="g134"
                   transform="translate(-122.637,-31.043)"><text
                     transform="matrix(1,0,0,-1,122.637,31.043)"
                     style="font-variant:normal;font-weight:normal;font-size:8.9664px;font-family:CMR9;-inkscape-font-specification:CMR9;writing-mode:lr-tb;fill:#000000;fill-opacity:1;fill-rule:nonzero;stroke:none"
                     id="text138"><tspan
                       x="0 7.0386238 12.674006 20.353727"
                       y="0"
                       id="tspan136">D,m(</tspan></text><text
                     transform="matrix(1,0,0,-1,146.571,31.043)"
                     style="font-variant:normal;font-weight:normal;font-size:8.9664px;font-family:CMSY9;-inkscape-font-specification:CMSY9;writing-mode:lr-tb;fill:#000000;fill-opacity:1;fill-rule:nonzero;stroke:none"
                     id="text142"><tspan
                       x="0"
                       y="0"
                       id="tspan140">{</tspan></text><text
                     transform="matrix(1,0,0,-1,151.179,31.043)"
                     style="font-variant:normal;font-weight:normal;font-size:8.9664px;font-family:CMR9;-inkscape-font-specification:CMR9;writing-mode:lr-tb;fill:#000000;fill-opacity:1;fill-rule:nonzero;stroke:none"
                     id="text146"><tspan
                       x="0 6.2711 11.906483"
                       y="0"
                       id="tspan144">E,B</tspan></text><text
                     transform="matrix(1,0,0,-1,169.608,31.043)"
                     style="font-variant:normal;font-weight:normal;font-size:8.9664px;font-family:CMSY9;-inkscape-font-specification:CMSY9;writing-mode:lr-tb;fill:#000000;fill-opacity:1;fill-rule:nonzero;stroke:none"
                     id="text150"><tspan
                       x="0"
                       y="0"
                       id="tspan148">}</tspan></text><text
                     transform="matrix(1,0,0,-1,174.216,31.043)"
                     style="font-variant:normal;font-weight:normal;font-size:8.9664px;font-family:CMR9;-inkscape-font-specification:CMR9;writing-mode:lr-tb;fill:#000000;fill-opacity:1;fill-rule:nonzero;stroke:none"
                     id="text154"><tspan
                       x="0"
                       y="0"
                       id="tspan152">)</tspan></text><g
                     id="g156"
                     transform="translate(122.637,31.043)" /></g></g><g
                 id="g158"
                 transform="translate(28.861,115.628)" /></g></g><g
             id="g160"><g
               id="g162"><path
                 d="m -75.47398,0 c 0,20.93916 -16.97408,37.91324 -37.91326,37.91324 -20.93916,0 -37.91324,-16.97408 -37.91324,-37.91324 0,-20.93916 16.97408,-37.91324 37.91324,-37.91324 20.93918,0 37.91326,16.97408 37.91326,37.91324 z"
                 style="fill:#ff00ff;fill-opacity:1;fill-rule:nonzero;stroke:#000000;stroke-width:0.3985;stroke-linecap:butt;stroke-linejoin:miter;stroke-miterlimit:10;stroke-dasharray:none;stroke-opacity:1"
                 id="path164" /></g><g
               id="g166"
               transform="translate(-147.238,-2.242)"><g
                 id="g168"><g
                   id="g170"
                   transform="translate(-4.26,-144.429)"><text
                     transform="matrix(1,0,0,-1,4.26,144.429)"
                     style="font-variant:normal;font-weight:normal;font-size:8.9664px;font-family:CMR9;-inkscape-font-specification:CMR9;writing-mode:lr-tb;fill:#000000;fill-opacity:1;fill-rule:nonzero;stroke:none"
                     id="text174"><tspan
                       x="0 6.2711 11.906483 19.586205"
                       y="0"
                       id="tspan172">E,m(</tspan></text><text
                     transform="matrix(1,0,0,-1,27.426,144.429)"
                     style="font-variant:normal;font-weight:normal;font-size:8.9664px;font-family:CMSY9;-inkscape-font-specification:CMSY9;writing-mode:lr-tb;fill:#000000;fill-opacity:1;fill-rule:nonzero;stroke:none"
                     id="text178"><tspan
                       x="0"
                       y="0"
                       id="tspan176">{</tspan></text><text
                     transform="matrix(1,0,0,-1,32.033,144.429)"
                     style="font-variant:normal;font-weight:normal;font-size:8.9664px;font-family:CMR9;-inkscape-font-specification:CMR9;writing-mode:lr-tb;fill:#000000;fill-opacity:1;fill-rule:nonzero;stroke:none"
                     id="text182"><tspan
                       x="0 6.9104047 12.545787 19.07243 24.698845"
                       y="0"
                       id="tspan180">A,B,D</tspan></text><text
                     transform="matrix(1,0,0,-1,63.772,144.429)"
                     style="font-variant:normal;font-weight:normal;font-size:8.9664px;font-family:CMSY9;-inkscape-font-specification:CMSY9;writing-mode:lr-tb;fill:#000000;fill-opacity:1;fill-rule:nonzero;stroke:none"
                     id="text186"><tspan
                       x="0"
                       y="0"
                       id="tspan184">}</tspan></text><text
                     transform="matrix(1,0,0,-1,68.38,144.429)"
                     style="font-variant:normal;font-weight:normal;font-size:8.9664px;font-family:CMR9;-inkscape-font-specification:CMR9;writing-mode:lr-tb;fill:#000000;fill-opacity:1;fill-rule:nonzero;stroke:none"
                     id="text190"><tspan
                       x="0"
                       y="0"
                       id="tspan188">)</tspan></text><g
                     id="g192"
                     transform="translate(4.26,144.429)" /></g></g><g
                 id="g194"
                 transform="translate(147.238,2.242)" /></g></g><path
             d="M 29.70999,98.5325 79.4755,73.64919"
             style="fill:none;stroke:#000000;stroke-width:0.3985;stroke-linecap:butt;stroke-linejoin:miter;stroke-miterlimit:10;stroke-dasharray:none;stroke-opacity:1"
             id="path196" /><path
             d="M -23.48952,89.8977 -86.4376,26.94962"
             style="fill:none;stroke:#000000;stroke-width:0.3985;stroke-linecap:butt;stroke-linejoin:miter;stroke-miterlimit:10;stroke-dasharray:none;stroke-opacity:1"
             id="path198" /><path
             d="M 113.38724,18.77643 V -23.21054"
             style="fill:none;stroke:#000000;stroke-width:0.3985;stroke-linecap:butt;stroke-linejoin:miter;stroke-miterlimit:10;stroke-dasharray:none;stroke-opacity:1"
             id="path200" /><path
             d="M 83.44121,-71.66637 29.76917,-98.5029"
             style="fill:none;stroke:#000000;stroke-width:0.3985;stroke-linecap:butt;stroke-linejoin:miter;stroke-miterlimit:10;stroke-dasharray:none;stroke-opacity:1"
             id="path202" /><path
             d="M -23.53629,-89.85094 -86.4376,-26.94962"
             style="fill:none;stroke:#000000;stroke-width:0.3985;stroke-linecap:butt;stroke-linejoin:miter;stroke-miterlimit:10;stroke-dasharray:none;stroke-opacity:1"
             id="path204" /><path
             d="M 76.60233,47.49841 -76.41283,9.24257"
             style="fill:none;stroke:#000000;stroke-width:0.3985;stroke-linecap:butt;stroke-linejoin:miter;stroke-miterlimit:10;stroke-dasharray:none;stroke-opacity:1"
             id="path206" /></g></g></g></g><path
     style="fill:#000000;fill-opacity:0;stroke-width:0.503916"
     d="m 99.219562,179.2006 c -2.042027,-6.20634 -5.631631,-12.47737 -9.789003,-17.10136 l -2.184108,-2.42926 41.721139,-41.71887 41.72115,-41.718873 3.47077,2.824233 c 4.48525,3.649722 11.35877,7.051616 17.07651,8.451636 5.77401,1.413799 15.37745,1.532682 20.58668,0.254848 13.07127,-3.206403 21.65548,-9.795625 29.84938,-22.91231 0.12177,-0.194921 65.71651,32.591285 65.71651,32.847068 0,0.103671 -0.5794,1.498634 -1.28757,3.099918 -2.52124,5.70098 -3.44826,10.85958 -3.43852,19.13431 0.005,4.15731 0.24775,8.50135 0.53968,9.65344 l 0.53078,2.09469 -101.70822,25.42727 -101.70821,25.42727 z"
     id="path1248" /><path
     style="fill:#000000;fill-opacity:0;stroke-width:0.503916"
     d="m 239.6111,322.69067 c -2.44076,-3.95434 -7.68791,-9.51751 -11.57652,-12.27373 -8.5312,-6.04687 -18.06833,-8.76442 -28.68292,-8.17305 -9.28707,0.51741 -17.83794,3.69019 -24.71521,9.17052 -1.91671,1.52738 -3.61506,2.77705 -3.7741,2.77705 -0.15904,0 -18.97517,-18.68704 -41.81362,-41.52674 l -41.524448,-41.52674 2.363947,-2.76703 c 5.533022,-6.47647 9.680649,-15.43093 11.213701,-24.20966 0.77053,-4.41233 0.77398,-6.31295 0.0344,-18.93503 l -0.10118,-1.72648 101.28706,-25.32984 c 55.70789,-13.93141 101.42927,-25.17288 101.60306,-24.98105 0.1738,0.19183 0.71586,1.59597 1.20458,3.12031 5.91721,18.45599 23.93428,32.595 43.44637,34.09482 l 4.16484,0.32014 v 27.60476 27.60477 l -2.89752,0.32088 c -11.24225,1.24504 -19.87354,5.06049 -27.20752,12.02706 -13.43521,12.76214 -17.78588,31.20243 -11.4703,48.61688 0.73759,2.03384 1.26661,3.76633 1.1756,3.84999 -0.44329,0.40749 -70.01323,35.03302 -70.38866,35.03302 -0.23855,0 -1.29223,-1.39089 -2.34151,-3.09085 z"
     id="path1287" /></svg>
